HIERARCHY
ROOT Hips
{
	OFFSET -14.64140 90.27770 -84.91600
	CHANNELS 6 Xposition Yposition Zposition Zrotation Xrotation Yrotation
	JOINT Spine
	{
		OFFSET 0.00000 13.20850 -1.60436
		CHANNELS 3 Zrotation Xrotation Yrotation
		JOINT Spine1
		{
			OFFSET 0.00000 8.61716 0.00000
			CHANNELS 3 Zrotation Xrotation Yrotation
			JOINT Spine2
			{
				OFFSET 0.00000 8.61717 0.00000
				CHANNELS 3 Zrotation Xrotation Yrotation
				JOINT Spine3
				{
					OFFSET 0.00000 8.61717 0.00000
					CHANNELS 3 Zrotation Xrotation Yrotation
					JOINT Neck
					{
						OFFSET 0.00000 11.07920 1.10792
						CHANNELS 3 Zrotation Xrotation Yrotation
						JOINT Neck1
						{
							OFFSET 0.00000 7.08032 0.00000
							CHANNELS 3 Zrotation Xrotation Yrotation
							JOINT Head
							{
								OFFSET 0.00000 7.08031 0.00000
								CHANNELS 3 Zrotation Xrotation Yrotation
								End site
								{
									OFFSET 0.00000 0.00000 0.00000
								}
							}
						}
					}
					JOINT RightShoulder
					{
						OFFSET -0.01000 7.91373 5.19711
						CHANNELS 3 Zrotation Xrotation Yrotation
						JOINT RightArm
						{
							OFFSET -18.41580 0.00000 0.00000
							CHANNELS 3 Zrotation Xrotation Yrotation
							JOINT RightForeArm
							{
								OFFSET -29.11090 0.00000 0.00000
								CHANNELS 3 Zrotation Xrotation Yrotation
								JOINT RightHand
								{
									OFFSET -24.65040 0.00000 0.00000
									CHANNELS 3 Zrotation Xrotation Yrotation
									JOINT RightHandThumb1
									{
										OFFSET -5.35114 -0.85590 3.97906
										CHANNELS 3 Zrotation Xrotation Yrotation
										JOINT RightHandThumb2
										{
											OFFSET -4.52789 0.00000 0.00000
											CHANNELS 3 Zrotation Xrotation Yrotation
											JOINT RightHandThumb3
											{
												OFFSET -2.46976 0.00000 0.00000
												CHANNELS 3 Zrotation Xrotation Yrotation
												End site
												{
													OFFSET 0.00000 0.00000 0.00000
												}
											}
										}
									}
									JOINT RightHandIndex1
									{
										OFFSET -14.26970 0.00000 2.88139
										CHANNELS 3 Zrotation Xrotation Yrotation
										JOINT RightHandIndex2
										{
											OFFSET -5.48836 0.00000 0.00000
											CHANNELS 3 Zrotation Xrotation Yrotation
											JOINT RightHandIndex3
											{
												OFFSET -3.01859 0.00000 0.00000
												CHANNELS 3 Zrotation Xrotation Yrotation
												End site
												{
													OFFSET 0.00000 0.00000 0.00000
												}
											}
										}
									}
									JOINT RightHandMiddle1
									{
										OFFSET -14.26970 0.00000 -0.09147
										CHANNELS 3 Zrotation Xrotation Yrotation
										JOINT RightHandMiddle2
										{
											OFFSET -6.17441 0.00000 0.00000
											CHANNELS 3 Zrotation Xrotation Yrotation
											JOINT RightHandMiddle3
											{
												OFFSET -3.56743 0.00000 0.00000
												CHANNELS 3 Zrotation Xrotation Yrotation
												End site
												{
													OFFSET 0.00000 0.00000 0.00000
												}
											}
										}
									}
									JOINT RightHandRing1
									{
										OFFSET -12.69180 0.00000 -3.06433
										CHANNELS 3 Zrotation Xrotation Yrotation
										JOINT RightHandRing2
										{
											OFFSET -5.62556 0.00000 0.00000
											CHANNELS 3 Zrotation Xrotation Yrotation
											JOINT RightHandRing3
											{
												OFFSET -3.56744 0.00000 0.00000
												CHANNELS 3 Zrotation Xrotation Yrotation
												End site
												{
													OFFSET 0.00000 0.00000 0.00000
												}
											}
										}
									}
									JOINT RightHandPinky1
									{
										OFFSET -11.11390 0.00000 -6.03719
										CHANNELS 3 Zrotation Xrotation Yrotation
										JOINT RightHandPinky2
										{
											OFFSET -4.52789 0.00000 0.00000
											CHANNELS 3 Zrotation Xrotation Yrotation
											JOINT RightHandPinky3
											{
												OFFSET -2.46976 0.00000 0.00000
												CHANNELS 3 Zrotation Xrotation Yrotation
												End site
												{
													OFFSET 0.00000 0.00000 0.00000
												}
											}
										}
									}
								}
							}
						}
					}
					JOINT LeftShoulder
					{
						OFFSET 0.01000 7.91373 5.19711
						CHANNELS 3 Zrotation Xrotation Yrotation
						JOINT LeftArm
						{
							OFFSET 18.41580 0.00000 0.00000
							CHANNELS 3 Zrotation Xrotation Yrotation
							JOINT LeftForeArm
							{
								OFFSET 29.11090 0.00000 0.00000
								CHANNELS 3 Zrotation Xrotation Yrotation
								JOINT LeftHand
								{
									OFFSET 24.65040 0.00000 0.00000
									CHANNELS 3 Zrotation Xrotation Yrotation
									JOINT LeftHandThumb1
									{
										OFFSET 5.35114 -0.85590 3.97906
										CHANNELS 3 Zrotation Xrotation Yrotation
										JOINT LeftHandThumb2
										{
											OFFSET 4.52789 0.00000 0.00000
											CHANNELS 3 Zrotation Xrotation Yrotation
											JOINT LeftHandThumb3
											{
												OFFSET 2.46977 0.00000 0.00000
												CHANNELS 3 Zrotation Xrotation Yrotation
												End site
												{
													OFFSET 0.00000 0.00000 0.00000
												}
											}
										}
									}
									JOINT LeftHandIndex1
									{
										OFFSET 14.26970 0.00000 2.88139
										CHANNELS 3 Zrotation Xrotation Yrotation
										JOINT LeftHandIndex2
										{
											OFFSET 5.48836 0.00000 0.00000
											CHANNELS 3 Zrotation Xrotation Yrotation
											JOINT LeftHandIndex3
											{
												OFFSET 3.01859 0.00000 0.00000
												CHANNELS 3 Zrotation Xrotation Yrotation
												End site
												{
													OFFSET 0.00000 0.00000 0.00000
												}
											}
										}
									}
									JOINT LeftHandMiddle1
									{
										OFFSET 14.26970 0.00000 -0.09147
										CHANNELS 3 Zrotation Xrotation Yrotation
										JOINT LeftHandMiddle2
										{
											OFFSET 6.17440 0.00000 0.00000
											CHANNELS 3 Zrotation Xrotation Yrotation
											JOINT LeftHandMiddle3
											{
												OFFSET 3.56744 0.00000 0.00000
												CHANNELS 3 Zrotation Xrotation Yrotation
												End site
												{
													OFFSET 0.00000 0.00000 0.00000
												}
											}
										}
									}
									JOINT LeftHandRing1
									{
										OFFSET 12.69180 0.00000 -3.06433
										CHANNELS 3 Zrotation Xrotation Yrotation
										JOINT LeftHandRing2
										{
											OFFSET 5.62556 0.00000 0.00000
											CHANNELS 3 Zrotation Xrotation Yrotation
											JOINT LeftHandRing3
											{
												OFFSET 3.56744 0.00000 0.00000
												CHANNELS 3 Zrotation Xrotation Yrotation
												End site
												{
													OFFSET 0.00000 0.00000 0.00000
												}
											}
										}
									}
									JOINT LeftHandPinky1
									{
										OFFSET 11.11390 0.00000 -6.03719
										CHANNELS 3 Zrotation Xrotation Yrotation
										JOINT LeftHandPinky2
										{
											OFFSET 4.52789 0.00000 0.00000
											CHANNELS 3 Zrotation Xrotation Yrotation
											JOINT LeftHandPinky3
											{
												OFFSET 2.46976 0.00000 0.00000
												CHANNELS 3 Zrotation Xrotation Yrotation
												End site
												{
													OFFSET 0.00000 0.00000 0.00000
												}
											}
										}
									}
								}
							}
						}
					}
					JOINT pCube4
					{
						OFFSET 0.00000 10.91090 1.10792
						CHANNELS 3 Zrotation Xrotation Yrotation
						End site
						{
							OFFSET 0.00000 0.00000 0.00000
						}
					}
				}
			}
		}
	}
	JOINT RightUpLeg
	{
		OFFSET -9.98441 0.00000 0.00000
		CHANNELS 3 Zrotation Xrotation Yrotation
		JOINT RightLeg
		{
			OFFSET 0.00000 -42.11790 0.00000
			CHANNELS 3 Zrotation Xrotation Yrotation
			JOINT RightFoot
			{
				OFFSET 0.00000 -45.00020 -0.00001
				CHANNELS 3 Zrotation Xrotation Yrotation
				JOINT RightForeFoot
				{
					OFFSET 0.00000 -3.74820 0.00000
					CHANNELS 3 Zrotation Xrotation Yrotation
					JOINT RightToeBase
					{
						OFFSET 0.00000 0.06325 14.43120
						CHANNELS 3 Zrotation Xrotation Yrotation
						End site
						{
							OFFSET 0.00000 0.00000 0.00000
						}
					}
				}
			}
		}
	}
	JOINT LeftUpLeg
	{
		OFFSET 9.98441 0.00000 0.00000
		CHANNELS 3 Zrotation Xrotation Yrotation
		JOINT LeftLeg
		{
			OFFSET 0.00000 -42.11800 0.00000
			CHANNELS 3 Zrotation Xrotation Yrotation
			JOINT LeftFoot
			{
				OFFSET 0.00000 -45.00070 0.00000
				CHANNELS 3 Zrotation Xrotation Yrotation
				JOINT LeftForeFoot
				{
					OFFSET 0.00000 -3.74824 0.00000
					CHANNELS 3 Zrotation Xrotation Yrotation
					JOINT LeftToeBase
					{
						OFFSET 0.00000 0.06325 14.43110
						CHANNELS 3 Zrotation Xrotation Yrotation
						End site
						{
							OFFSET 0.00000 0.00000 0.00000
						}
					}
				}
			}
		}
	}
}
MOTION
Frames: 4
Frame Time: 0.050000
-0.03229741998058039 -0.009808157157556865 -0.01641362966884837 -0.037801412515694056 -0.014822690531733082 0.014692777374182548 -3.737816581155926 4.173434315484176 -0.6141311523208157 -1.0310966394592977 3.90049024841535 0.4140421836794476 -1.3635602900257189 -1.0005360802461776 -0.17108397435679826 0.37286841981651314 0.8560669358065364 -0.7437046495638965 0.6993401459879804 12.177881654240114 -2.2434050134113175 -0.35493542933188765 -1.808966977295404 -8.951097415973118 0.5017543518485561 -17.995556015741055 -0.7433915316976948 -3.6398690248147303 1.5806713649212787 -13.103356335606314 69.85044770102334 15.054249096890517 22.627240952751986 6.795354746462559 5.10963061302324 84.65651692944786 13.431001682646048 -0.5007913665059366 -4.460031817002138 4.562672113080202 -0.11260959922276373 -1.6091877458349253 -0.04693216784698329 -0.0044092858328954685 -56.214290854422714 0.0047081549729629975 -0.006259951771499696 -56.26312106657321 -38.755362115001965 0.02413515395227551 -0.013874631889264362 -0.02708872921889355 -0.009830805765778553 -0.02150754099038784 0.02120443976384845 -0.006094683850465457 -0.033840502732917235 -36.65346385351349 0.015187327930685621 -0.04007349895033469 0.007950432240140767 -0.009534313233096735 -0.01487256800049124 0.04416940858952907 -0.02398063845087465 0.03754497448123404 -19.80066470795934 0.014019944117015251 -0.04029933671790412 0.028352241280897222 -0.0012132180317739325 -0.02468400359060359 -0.02645924353340829 0.019206264507579465 0.024713529517098244 24.083082291807038 -0.042147170395715715 -0.013751034742647973 28.84641412692209 -0.044540253581685056 0.024190113076129244 28.91281046038201 -0.044807928597469064 -0.02119474996445604 1.381496580298869 0.5816999499601985 11.611451764896291 -66.06051105872011 26.020339956752633 -7.403765734140565 6.8513575345556195 -13.402202551331392 -52.84001429550435 -8.935709273957746 2.555573680018517 0.671008924428718 -0.45531959971841496 0.055459280371361615 -8.108634116823012 -0.025638380507470485 0.016679568198172394 44.56737240493879 0.004789292342937908 0.0062815532046706915 44.589990374895855 12.458812670389229 -0.03321122372601104 -0.036273915626498156 0.00823536073063023 0.005649478652420078 -0.03091892388719482 0.03715000441891256 -0.033747644644069444 -0.03734954646348155 11.12367669891454 -0.03583816101516305 0.014017189554614694 -0.018633954768771523 -0.03684792781194943 0.013987434158119408 -0.03905016933825948 -0.011937180099167012 -0.004597392526650516 4.731874272784986 0.010526342088603757 0.03208042902110408 0.04059402673044729 0.023418280092125446 -0.0005221058752162662 0.025021801059394014 -0.009727821068267401 0.03714169235011646 -5.609986735644318 0.024742526335947004 0.04690069128192392 -6.716585954759586 -0.04167458262977908 0.02471423365082353 -6.698617790416992 -0.003302169129230407 0.023242727399289034 0.0308709475960043 0.01815575276228729 -0.005098783141397927 8.06176269003392 3.512409457309705 -19.189392031097174 -0.0005502545041138873 10.415109862032718 0.01643124631303771 -5.660672233704442 -15.671014972343661 3.158179315306142 0.04695159396949906 0.003268139556637132 0.014447524380726523 -0.04738851616358721 4.702832864712354 0.010372433448180786 12.500202907294558 -8.224065984403904 6.898805782692876 0.0478729521900529 46.36352326758676 0.03255514022538578 -4.340374688999163 -14.763548978320078 -3.8274788722401674 0.0028006934471706303 0.0017330374231512627 0.010244891781522464 0.017305458715941923 -10.739884145770738 -0.041998638141452216 
-0.016460085779047364 0.0011564414555279465 0.023607409077845823 -0.018682174920065724 0.03537375957657292 0.03123492904224098 -3.4807614926372317 3.9468652875871744 -0.606025303124218 -1.065340340882985 3.8603180311368375 0.46481377379349886 -1.3664845160463714 -1.09723201544774 -0.1312804868961212 0.33906380461481395 0.799992919536399 -0.7480778117380152 0.6575115160981956 12.417815032881618 -2.0820426391073212 -0.37859403703808625 -1.7940989695897214 -8.360062246529628 0.5204209538795279 -17.973701746112244 -0.6505949058153244 -4.158779701137875 1.635145653235893 -13.388985597203432 70.43342831744123 14.562386861070522 21.95665060467733 4.430689211419503 4.976854410488008 82.57495410943005 13.338152472107613 -0.4612025161936628 -4.164224817293783 4.5050812999138765 -0.1715698821719183 -1.5754747129868198 -0.01839194622598714 -0.045728131534953566 -56.22597983622249 -0.0003962149156873306 0.032366052891775236 -56.223131055899444 -38.74551179517149 -0.03919628164041649 0.01730372726171305 -0.0032244123670934423 -0.03125908655888458 -0.02685211394100066 0.04050982574841 0.04863871853775445 0.040899675230346655 -36.651894090878876 -0.02458897629181592 0.03170789009302624 -0.04908774755407963 0.043595065058001196 0.0009961779460085033 0.002744822192915356 0.02337477154223766 -0.0030612327510573536 -19.781214433730344 -0.006443513338971985 -0.0314391125593677 0.031629148841906686 -0.049094937885841586 0.02772144663617499 0.03959519289919722 -0.04553720345121916 0.02086308237684317 24.039714487411867 0.007966553625017124 0.009391885998000584 28.83360171319654 -0.01568537026388658 0.005827434784930419 28.831772902675816 -0.0271067471102172 -0.007113303849722476 2.075985726638338 0.6851758402470001 11.892630358307509 -66.38398577761357 26.09034159568732 -7.597117952942593 6.5036415595172725 -13.518410311105592 -52.82508976056472 -9.054808689667146 1.9386488280029075 0.9397699025358373 -0.49338446791232854 0.11745060684915914 -8.162297653812983 -0.002047113385269714 0.038769173181323044 44.54914278395196 -0.010409354205435456 0.04499680190451278 44.55342708098499 12.464109432734618 0.03421182842161772 0.03038389867469904 -0.021734962877952454 -0.04527375900915859 -0.0020381827852210903 -0.0050735909186056805 -0.02848074894634839 -0.0006424048004815726 11.105367123805662 -0.041904235011669975 -0.010187608511351495 -0.006409659067347582 0.0160261085418649 -0.044009500560898855 -0.022116057305121447 -0.02870089511895144 0.029148294839386288 4.786834842952017 -0.03447264962616261 0.0009721779904839526 -0.026959834450785727 0.04101501373916099 -0.002183144515597267 0.016473342120778982 -0.012114512949962922 0.001354219076999205 -5.598779875347054 0.003108112456716911 -0.042290837492657565 -6.71683412887022 0.0017364587239308451 0.002320570783215341 -6.749883441530896 -0.040790194834225024 0.003496496982163988 0.005565088016844078 0.031182361482603352 0.049940094513065185 8.001363920024398 3.473687725607178 -19.225194472716353 -0.0018226130688364839 10.378102154321784 0.038375325502971694 -5.60888228036226 -15.646969200510712 3.1730694998616684 -0.040755909584681484 0.027743273681574233 0.04858208084661646 -0.04644246160755724 4.692353074621836 -0.0045925315731332695 12.494399239803862 -8.223107696423476 6.8503205876498665 0.0237017599415194 46.33675048106716 0.003225937852084134 -4.305132600404668 -14.70476272330125 -3.7910686108524603 0.03692282877410903 0.036767259182509664 -0.03179068058215492 -0.0008655362157285577 -10.789010937461983 0.01440650363397083 
-0.002597808121579354 0.04691264829124909 0.025190058401743196 -0.020325920748254983 0.0007033152866171576 0.0017443340302469236 -3.2264885276484874 3.771291593524527 -0.7163219176193579 -1.0299536968315728 3.9248971674275337 0.3921502860418187 -1.3133502353660276 -1.1588941573965346 -0.08775409349792822 0.2979225458076507 0.8071130087707019 -0.7193876164189505 0.5344062888196088 12.700972500237377 -1.960081401418368 -0.328780383841642 -1.6201566044245244 -7.942889782754026 0.45768793866319657 -17.849301191884187 -0.6197495684913739 -4.6758951325626965 1.7914862083342025 -13.639786232062647 70.97698544649944 14.762340824080962 21.178512706392954 1.6532803010485244 4.700957803897835 79.17741714864717 13.368921116648925 -0.4261465406651202 -3.7931861801212166 4.534873488707627 -0.16605324829381557 -1.5685545912281345 -0.03365187862443705 -0.006790470441264454 -56.205059144101575 -0.047964475054289885 -0.02607265103243503 -56.268021183771914 -38.79562540674579 -0.008390116627588958 0.033278473980472074 -0.038883824821555446 0.012815779902712073 0.03056374752670228 -0.042013144006015836 -0.03861083364237375 0.022324160062446367 -36.71554275591514 -0.025406891385546942 -0.02567553610294266 0.04006574182725174 -0.003474526565956656 -0.048728784873466435 -0.047499107312337134 0.011359919959519429 0.013942109948806949 -19.7405759601449 0.016190542092507455 0.0017055002400758054 -0.0257403565275027 -0.011925922664804042 -0.02309201110574916 0.005471585052145539 -0.03605010701429678 -0.03372799048671647 24.06487203166768 0.02590612982609949 0.001464539369903266 28.845212315153745 -0.007271152703722384 0.04694398700779164 28.898706267875877 -0.02613197008306587 0.0441573969074126 2.674051014344156 0.8536915271629758 12.074424968359343 -66.34776605849935 26.311071731103365 -8.12390839990303 6.096472557512212 -13.550898240896935 -53.06633162477982 -9.244980150190312 1.3704396117489654 1.332021592659787 -0.517562551043673 0.08421214067844181 -8.13842267382126 -0.030992367940778084 0.03274944642754498 44.54337390373801 -0.021719566288975645 0.009871286343113515 44.573180022553714 12.48263154400908 -0.01341770330827677 0.027150196844382957 -0.009095863057635819 -0.007898262293385448 0.007329957356305177 0.03210315857354073 -0.001753996542293034 -0.031848611991822984 11.095273980118645 0.018229035682524174 -0.034003778156515785 -0.007065937839524111 0.04370580539717123 0.04024997754679252 0.03398132968020425 -0.04870520556770768 -0.008042610552512215 4.8016550481798 0.03326350869080826 0.010231667679771381 -0.011829481908591599 0.012608939564805993 -0.01026717292690461 0.02422681244981205 -0.009957527571132111 0.029607789720197373 -5.641964000108227 0.010884752281790217 0.011306694806302614 -6.753832830849617 -0.011630737718011711 -0.029514050193431944 -6.69820019658961 -0.02083729520368222 -0.02715383564664373 -0.01600710653429471 0.03839069229185993 0.04666039331187137 8.033096878317416 3.47906654782448 -19.24178809891749 -0.03008165984523794 10.435824110770692 0.05583550303631367 -5.600412802683532 -15.678352914725645 3.1560762379944585 -0.0021775446767347433 -0.04750893678320157 0.04272390263679462 0.009509385542486672 4.718088384766001 0.0027067445164790753 12.418771630356384 -8.258229510195354 6.885672942020888 0.04453988363682166 46.34356364250676 0.03851864025058888 -4.328012135812135 -14.743714678918044 -3.801796769433356 -0.0070148314160272136 -0.005995609729087373 0.04355886086543862 -0.014954598209070587 -10.757789437383664 0.026066740569553295 
-0.01082218183303893 0.043101869273350885 0.019832682924635726 -0.04916170247482441 -0.014444466108700935 0.011838289275300576 -2.934993295672877 3.450196605897838 -0.7412646564172506 -1.066262965120712 3.899911598540229 0.44229110622461426 -1.3625448237640094 -1.337095245584925 0.012891696677159618 0.24315718700628816 0.6472912952958942 -0.7161743365281438 0.5012770192110868 13.085195716659074 -1.8669264138480235 -0.25621926698210673 -1.3506812021816268 -7.483643738174949 0.5017382005299281 -17.54696029740828 -0.6170974072783415 -5.220833040569055 1.9906534479879028 -13.69733854719561 71.3057779104718 13.948091328156233 21.42400429806616 0.18123334196124635 4.118842638147885 78.02856756402075 13.095065462090487 -0.45735294136446075 -3.4022449343651484 4.513624834117236 -0.12642027521080887 -1.6096936483544282 -0.017379989307737796 0.0036458680499945905 -56.23704666040151 0.01398760110828344 0.03569392589079032 -56.21886657295213 -38.78682120943293 0.01814399662052754 -0.04009161125337949 0.04111302207622458 -0.005666620366625369 0.043370129855194395 0.041171706800372854 0.025884793917313804 -0.018528018139065006 -36.66629316133788 0.0031631352752416048 0.03979999461471771 -0.010799621107681668 0.005905680883333102 0.04615458075826489 -0.017501074055896817 -0.023256403824154476 -0.02182773026550495 -19.76692663277951 0.0025472210376911333 0.029667554478102542 0.012648261533148887 -0.004239554458178968 -0.014758723201531446 0.02075088147519857 0.043612664820989994 0.03871673539361765 24.039376975437673 0.01735108891373341 0.00263871727182318 28.83380032524953 -0.04161244557971613 0.014832241797593475 28.902962924045948 -0.006871152077219256 -0.008003035469278934 3.5833151782723274 0.9538489871819749 12.21868863283769 -66.42152327850921 25.769256819445964 -9.3518696130616 5.698268790062512 -13.499820115904905 -53.84608313148034 -9.052130157715172 0.9511838346488865 1.570890307763777 -0.4894987921208527 0.04602611775254942 -8.163179503315853 -0.0024092702985238504 0.020160897680572498 44.59891073291782 -0.02049070805633854 0.02678946549661712 44.53122972839112 12.444144564188546 -0.025791443426766047 -0.01823826457010399 -0.03306350836543026 0.008179129473292511 0.04772085089156454 -0.02161801835413126 -0.041882449128992576 0.02714121180599601 11.135932139178971 0.049464612902335316 -0.0023927039068746985 -0.02835969972923365 0.023933075450025106 0.043991754076970147 -0.02564805306173449 -0.03503944783150767 0.04228668007040573 4.7332106461607095 0.02402425087623261 -0.03860411050693653 0.01883198116575036 0.011307718022574685 0.04461748695036545 -0.04058855967751203 0.010979277364982616 -0.001987489956344769 -5.631885501840246 -0.013313067450888429 -0.01218059448773035 -6.72190301056349 0.03795828099041744 0.00997708942061167 -6.72616048559189 -0.039050042563371114 0.002806476477224955 0.0031027412477879477 -0.02400646561196969 4.279190839354495e-05 8.006321560434166 3.517213582170736 -19.257920685736742 0.035196041064711574 10.355704492022594 -0.025623581160584174 -5.651952883334932 -15.625765993848567 3.1975639305745136 -0.04777066339292156 0.02723387645316598 0.036932955080283894 0.002846501528029786 4.6791696137587 -0.03853724043582647 12.49133062835928 -8.265231079217108 6.8655995658983535 0.005050010302322572 46.34679581466983 0.028834968002283176 -4.347315532886283 -14.77351042040118 -3.8220052756562466 -0.040302265166914084 -0.003867366260768894 -0.036335071867890534 0.04527309120567752 -10.698449337574502 -0.03504089183069553 
